# xmcd
#
# Track frame offsets:
#	150
#	11550
#	26129
#	36254
#	52253
#	62952
#	70428
#	80315
#	96051
#	112862
#	139357
#	180584
#
# Disc length: 2535 seconds
#
# Revision: 1
# Processed by: cddbd v1.5.2PL0 Copyright (c) Steve Scherf et al.
# Submitted via: audiograbber 1.83.01
#
DISCID=a809e50c
DTITLE=Joey Only - Outlaw Band EP
DYEAR=2006
DGENRE=Country
TTITLE0=Some Fightin' Advice
TTITLE1=Anthem Of The Apocalypse
TTITLE2=Tender Lovin' Outlaw Livin'
TTITLE3=Revolt At Sobibor
TTITLE4=Battle Of Stalingrad
TTITLE5=Not My Fault
TTITLE6=I Jus' Wannabe Yer Man
TTITLE7=Free Store
TTITLE8=Declared A War
TTITLE9=Problem Is Homelessness
TTITLE10=Parasites Of The Right
TTITLE11=La Internationale
EXTD=
EXTT0=
EXTT1=
EXTT2=
EXTT3=
EXTT4=
EXTT5=
EXTT6=
EXTT7=
EXTT8=
EXTT9=
EXTT10=
EXTT11=
PLAYORDER=
